# xmcd CD database file
#
# Track frame offsets:
#	150
#	12742
#	24480
#	38879
#	52083
#	65379
#	78005
#	91206
#	104284
#	116099
#	128942
#	141772
#	152424
#	167582
#	180217
#	195093
#	205510
#	219073
#	232521
#	246546
#	260548
#
# Disc length: 3632 seconds
#
# Revision: 0
# Processed by: cddbd v1.5.1PL0 Copyright (c) Steve Scherf et al.
# Submitted via: CDex 1.51
#
DISCID=060e2e15
DTITLE=Cliff Carlisle - A Country Legacy 1930-1938 #A
DYEAR=2004
DGENRE=Country
TTITLE0=Wild Cat Woman And A Tom Cat Man, A
TTITLE1=Memphis Yodel
TTITLE2=Desert Blues
TTITLE3=High Steppin' Mama
TTITLE4=Rambling Yodeler
TTITLE5=Dear Old Daddy
TTITLE6=Seven Years With The Wrong Woman
TTITLE7=Gamblin' Dan
TTITLE8=Handsome Blues
TTITLE9=When The Evening Sun Goes Down
TTITLE10=That Great Judgement Day
TTITLE11=Goodbye Old Pal
TTITLE12=I Want A Good Woman
TTITLE13=My Lovin' Kathleen
TTITLE14=You'll Miss Me When I'm Gone (Just Because)
TTITLE15=Nevada Johnny
TTITLE16=There Is No More That I Can Say
TTITLE17=Prepare Me O Lord
TTITLE18=Roll On, Roll On
TTITLE19=When It's Round Up Time In Heaven
TTITLE20=Home Of The Soul
EXTD=YEAR: 2004
EXTT0=
EXTT1=
EXTT2=
EXTT3=
EXTT4=
EXTT5=
EXTT6=
EXTT7=
EXTT8=
EXTT9=
EXTT10=
EXTT11=
EXTT12=
EXTT13=
EXTT14=
EXTT15=
EXTT16=
EXTT17=
EXTT18=
EXTT19=
EXTT20=
PLAYORDER=
